<svg width="25" height="25" viewBox="0 0 25 25" fill="none" xmlns="http://www.w3.org/2000/svg">
<rect width="25" height="25" fill="#1E1E1E"/>
<rect width="1440" height="1349" transform="translate(-540 -22)" fill="url(#paint0_linear_0_1)"/>
<rect x="-540" y="-22" width="1440" height="69.9482" fill="#2791C2"/>
<rect x="-12" y="-8.01037" width="384" height="41.9689" rx="5" fill="white"/>
<mask id="path-3-inside-1_0_1" fill="white">
<path d="M10.8118 20.7575C13.0257 20.757 15.1758 20.0164 16.9198 18.6537L22.403 24.1325L24.1666 22.3702L18.6835 16.8914C20.048 15.1486 20.7897 12.9997 20.7902 10.7869C20.7902 5.28944 16.3136 0.81642 10.8118 0.81642C5.30989 0.81642 0.833313 5.28944 0.833313 10.7869C0.833313 16.2844 5.30989 20.7575 10.8118 20.7575ZM10.8118 3.30905C14.9391 3.30905 18.2956 6.66288 18.2956 10.7869C18.2956 14.911 14.9391 18.2648 10.8118 18.2648C6.68442 18.2648 3.32792 14.911 3.32792 10.7869C3.32792 6.66288 6.68442 3.30905 10.8118 3.30905Z"/>
</mask>
<path d="M10.8118 20.7575C13.0257 20.757 15.1758 20.0164 16.9198 18.6537L22.403 24.1325L24.1666 22.3702L18.6835 16.8914C20.048 15.1486 20.7897 12.9997 20.7902 10.7869C20.7902 5.28944 16.3136 0.81642 10.8118 0.81642C5.30989 0.81642 0.833313 5.28944 0.833313 10.7869C0.833313 16.2844 5.30989 20.7575 10.8118 20.7575ZM10.8118 3.30905C14.9391 3.30905 18.2956 6.66288 18.2956 10.7869C18.2956 14.911 14.9391 18.2648 10.8118 18.2648C6.68442 18.2648 3.32792 14.911 3.32792 10.7869C3.32792 6.66288 6.68442 3.30905 10.8118 3.30905Z" fill="white" stroke="#BCBCBC" stroke-width="3" mask="url(#path-3-inside-1_0_1)"/>
<defs>
<linearGradient id="paint0_linear_0_1" x1="720" y1="0" x2="720" y2="1349" gradientUnits="userSpaceOnUse">
<stop stop-color="#2F2F2F" stop-opacity="0"/>
<stop offset="1"/>
</linearGradient>
</defs>
</svg>
